<?xml version="1.0" encoding="UTF-8" standalone="no"?>
<!-- Created with Inkscape (http://www.inkscape.org/) -->

<svg
   width="1280"
   height="720"
   viewBox="0 0 1280 720"
   version="1.1"
   id="svg1"
   xml:space="preserve"
   inkscape:version="1.4.2 (ebf0e940d0, 2025-05-08)"
   sodipodi:docname="drawing.svg"
   xmlns:inkscape="http://www.inkscape.org/namespaces/inkscape"
   xmlns:sodipodi="http://sodipodi.sourceforge.net/DTD/sodipodi-0.dtd"
   xmlns="http://www.w3.org/2000/svg"
   xmlns:svg="http://www.w3.org/2000/svg"><sodipodi:namedview
     id="namedview1"
     pagecolor="#ffffff"
     bordercolor="#000000"
     borderopacity="0.25"
     inkscape:showpageshadow="2"
     inkscape:pageopacity="0.0"
     inkscape:pagecheckerboard="0"
     inkscape:deskcolor="#d1d1d1"
     inkscape:document-units="px"
     inkscape:zoom="0.828125"
     inkscape:cx="635.77358"
     inkscape:cy="361.0566"
     inkscape:window-width="1894"
     inkscape:window-height="1054"
     inkscape:window-x="0"
     inkscape:window-y="0"
     inkscape:window-maximized="1"
     inkscape:current-layer="layer1" /><defs
     id="defs1" /><g
     inkscape:label="Layer 1"
     inkscape:groupmode="layer"
     id="layer1"><g
       fill="#f7a41d"
       id="g12"
       transform="matrix(2.1730458,0,0,2.1730458,457.0283,20.716975)"><g
         id="g3"><polygon
           points="28,44 19,30 46,22 "
           id="polygon1" /><polygon
           points="12,117 0,117 0,22 46,22 33,33 28,44 22,44 22,95 31,95 20,100 "
           shape-rendering="crispEdges"
           id="polygon2" /><polygon
           points="12,117 4,106 31,95 "
           id="polygon3" /></g><g
         id="g8"><polygon
           points="62,36 37,44 56,22 "
           id="polygon4" /><polygon
           points="111,44 37,44 56,32 56,22 111,22 "
           shape-rendering="crispEdges"
           id="polygon5" /><polygon
           points="97,117 90,104 116,95 "
           id="polygon6" /><polygon
           points="97,117 42,117 42,95 116,95 100,104 "
           shape-rendering="crispEdges"
           id="polygon7" /><polygon
           points="101,22 150,0 52,117 3,140 "
           id="polygon8" /></g><g
         id="g11"><polygon
           points="140,40 122,45 141,22 "
           id="polygon9" /><polygon
           points="122,45 132,36 141,22 153,22 153,117 106,117 120,105 125,95 131,95 131,45 "
           shape-rendering="crispEdges"
           id="polygon10" /><polygon
           points="130,110 106,117 125,95 "
           id="polygon11" /></g></g><text
       xml:space="preserve"
       style="font-style:normal;font-variant:normal;font-weight:bold;font-stretch:normal;font-size:192px;line-height:0;font-family:sans-serif;-inkscape-font-specification:'sans-serif Bold';text-align:start;writing-mode:lr-tb;direction:ltr;text-anchor:start;white-space:pre;inline-size:0;fill:#f7a41d;fill-opacity:1"
       x="438.33963"
       y="455.24527"
       id="text1"
       transform="translate(-82.113207,-16.905661)"><tspan
         id="tspan1"
         x="438.33963"
         y="455.24527"
         style="font-style:normal;font-variant:normal;font-weight:bold;font-stretch:normal;line-height:0;font-family:'Noto Sans Bassa Vah';-inkscape-font-specification:'Noto Sans Bassa Vah Bold';writing-mode:lr-tb;baseline-shift:baseline;fill:#f7a41d;fill-opacity:1">Z  <tspan
   style="fill:#9e9076;fill-opacity:1"
   id="tspan2">I  G</tspan></tspan></text><text
       xml:space="preserve"
       style="font-style:normal;font-variant:normal;font-weight:bold;font-stretch:normal;font-size:96px;line-height:0;font-family:'Noto Sans Bassa Vah';-inkscape-font-specification:'Noto Sans Bassa Vah Bold';text-align:start;writing-mode:lr-tb;direction:ltr;text-anchor:start;fill:#9e9076;fill-opacity:1"
       x="228.22641"
       y="561.50946"
       id="text3"><tspan
         sodipodi:role="line"
         id="tspan3"
         x="228.22641"
         y="561.50946"
         style="font-size:96px"><tspan
   style="fill:#ffac15;fill-opacity:1"
   id="tspan4">Z</tspan>UPER TUTORIAL</tspan></text></g></svg>
