<?xml version="1.0" encoding="UTF-8" standalone="no"?>
<!-- Created with Inkscape (http://www.inkscape.org/) -->

<svg
   width="1280"
   height="720"
   viewBox="0 0 1280 720"
   version="1.1"
   id="svg1"
   xml:space="preserve"
   xmlns="http://www.w3.org/2000/svg"
   xmlns:svg="http://www.w3.org/2000/svg"><defs
     id="defs1" /><g
     id="layer1"><g
       fill="#f7a41d"
       id="g12"
       transform="matrix(2.1730458,0,0,2.1730458,457.0283,20.716975)"><g
         id="g3"><polygon
           points="19,30 46,22 28,44 "
           id="polygon1" /><polygon
           points="33,33 28,44 22,44 22,95 31,95 20,100 12,117 0,117 0,22 46,22 "
           shape-rendering="crispEdges"
           id="polygon2" /><polygon
           points="4,106 31,95 12,117 "
           id="polygon3" /></g><g
         id="g8"><polygon
           points="37,44 56,22 62,36 "
           id="polygon4" /><polygon
           points="111,22 111,44 37,44 56,32 56,22 "
           shape-rendering="crispEdges"
           id="polygon5" /><polygon
           points="90,104 116,95 97,117 "
           id="polygon6" /><polygon
           points="100,104 97,117 42,117 42,95 116,95 "
           shape-rendering="crispEdges"
           id="polygon7" /><polygon
           points="101,22 150,0 52,117 3,140 "
           id="polygon8" /></g><g
         id="g11"><polygon
           points="122,45 141,22 140,40 "
           id="polygon9" /><polygon
           points="153,117 106,117 120,105 125,95 131,95 131,45 122,45 132,36 141,22 153,22 "
           shape-rendering="crispEdges"
           id="polygon10" /><polygon
           points="106,117 125,95 130,110 "
           id="polygon11" /></g></g><text
       xml:space="preserve"
       style="font-style:normal;font-variant:normal;font-weight:bold;font-stretch:normal;font-size:192px;line-height:0;font-family:sans-serif;-inkscape-font-specification:'sans-serif Bold';text-align:start;writing-mode:lr-tb;direction:ltr;text-anchor:start;white-space:pre;inline-size:0;fill:#f7a41d;fill-opacity:1;paint-order:normal"
       x="438.33963"
       y="455.24527"
       id="text1"
       transform="translate(-90.566037,-16.905661)"><tspan
         id="tspan1"
         x="438.33963"
         y="455.24527"
         style="font-style:normal;font-variant:normal;font-weight:bold;font-stretch:normal;line-height:0;font-family:'Noto Sans Bassa Vah';-inkscape-font-specification:'Noto Sans Bassa Vah Bold';writing-mode:lr-tb;baseline-shift:baseline;fill:#f7a41d;fill-opacity:1;paint-order:normal">Z  <tspan
   style="fill:#9e9076;fill-opacity:1;paint-order:normal"
   id="tspan2">I  G</tspan></tspan></text><text
       xml:space="preserve"
       style="font-style:normal;font-variant:normal;font-weight:bold;font-stretch:normal;font-size:96px;line-height:0;font-family:'Noto Sans Bassa Vah';-inkscape-font-specification:'Noto Sans Bassa Vah Bold';text-align:start;writing-mode:lr-tb;direction:ltr;text-anchor:start;fill:#9e9076;fill-opacity:1"
       x="228.22641"
       y="561.50946"
       id="text3"><tspan
         id="tspan3"
         x="228.22641"
         y="561.50946"
         style="font-size:96px"><tspan
   style="fill:#ffac15;fill-opacity:1"
   id="tspan4">Z</tspan>UPER TUTORIAL</tspan></text></g></svg>
